<svg width="496" height="360" viewBox="0 0 496 360" fill="none" xmlns="http://www.w3.org/2000/svg">
<path d="M392.546 179.305C392.546 159.651 368.568 141.025 331.806 129.474C340.289 91.0129 336.519 60.4132 319.905 50.6165C316.076 48.3185 311.598 47.23 306.708 47.23V60.7156C309.418 60.7156 311.598 61.2599 313.424 62.2879C321.437 67.0049 324.913 84.9656 322.203 108.067C321.555 113.751 320.494 119.738 319.198 125.846C307.651 122.943 295.043 120.706 281.787 119.254C273.834 108.067 265.586 97.9069 257.279 89.0173C276.485 70.6938 294.513 60.6551 306.767 60.6551V47.1695C290.566 47.1695 269.356 59.0223 247.912 79.5834C226.467 59.1433 205.258 47.4114 189.056 47.4114V60.897C201.251 60.897 219.338 70.8752 238.544 89.0778C230.296 97.9674 222.048 108.067 214.213 119.254C200.898 120.706 188.29 122.943 176.743 125.906C175.388 119.859 174.386 113.993 173.68 108.369C170.911 85.2679 174.328 67.3072 182.281 62.5298C184.048 61.4413 186.346 60.9575 189.056 60.9575V47.4719C184.107 47.4719 179.63 48.5604 175.742 50.8584C159.187 60.6551 155.475 91.1944 164.018 129.535C127.373 141.146 103.513 159.711 103.513 179.305C103.513 198.959 127.491 217.584 164.253 229.135C155.77 267.596 159.54 298.196 176.154 307.993C179.983 310.291 184.461 311.379 189.41 311.379C205.611 311.379 226.82 299.526 248.265 278.965C269.71 299.405 290.919 311.137 307.121 311.137C312.069 311.137 316.547 310.049 320.435 307.751C336.99 297.954 340.702 267.415 332.159 229.074C368.686 217.524 392.546 198.898 392.546 179.305ZM315.84 138.969C313.66 146.77 310.95 154.813 307.886 162.856C305.471 158.018 302.938 153.18 300.169 148.342C297.459 143.504 294.572 138.787 291.685 134.191C300.051 135.461 308.122 137.033 315.84 138.969ZM288.857 203.373C284.262 211.537 279.549 219.278 274.659 226.474C265.88 227.26 256.984 227.684 248.029 227.684C239.133 227.684 230.237 227.26 221.518 226.535C216.628 219.338 211.856 211.658 207.261 203.555C202.783 195.632 198.718 187.589 195.007 179.486C198.659 171.383 202.783 163.279 207.202 155.357C211.797 147.193 216.51 139.452 221.4 132.256C230.178 131.47 239.074 131.047 248.029 131.047C256.926 131.047 265.822 131.47 274.541 132.196C279.431 139.392 284.203 147.072 288.798 155.176C293.276 163.098 297.341 171.141 301.052 179.244C297.341 187.348 293.276 195.451 288.857 203.373ZM307.886 195.512C311.068 203.615 313.778 211.718 316.017 219.58C308.299 221.515 300.169 223.148 291.744 224.418C294.631 219.761 297.518 214.984 300.228 210.086C302.938 205.248 305.471 200.349 307.886 195.512ZM248.147 260.037C242.668 254.231 237.189 247.761 231.769 240.685C237.071 240.927 242.491 241.109 247.971 241.109C253.508 241.109 258.988 240.988 264.349 240.685C259.046 247.761 253.567 254.231 248.147 260.037ZM204.315 224.418C195.949 223.148 187.878 221.576 180.16 219.641C182.34 211.839 185.05 203.796 188.114 195.753C190.529 200.591 193.062 205.429 195.831 210.267C198.6 215.105 201.428 219.822 204.315 224.418ZM247.853 98.5722C253.332 104.378 258.811 110.848 264.231 117.924C258.929 117.682 253.508 117.5 248.029 117.5C242.491 117.5 237.012 117.621 231.651 117.924C236.954 110.848 242.433 104.378 247.853 98.5722ZM204.256 134.191C201.369 138.848 198.482 143.625 195.772 148.523C193.062 153.361 190.529 158.199 188.114 163.037C184.932 154.934 182.222 146.83 179.983 138.969C187.701 137.094 195.831 135.461 204.256 134.191ZM150.939 209.904C130.083 200.773 116.591 188.799 116.591 179.305C116.591 169.81 130.083 157.776 150.939 148.705C156.005 146.467 161.543 144.472 167.258 142.597C170.616 154.45 175.035 166.787 180.514 179.426C175.093 192.004 170.734 204.28 167.435 216.073C161.602 214.198 156.064 212.142 150.939 209.904ZM182.634 296.321C174.622 291.604 171.146 273.644 173.856 250.543C174.504 244.858 175.565 238.871 176.861 232.763C188.408 235.666 201.016 237.904 214.272 239.355C222.225 250.543 230.473 260.702 238.78 269.592C219.574 287.915 201.546 297.954 189.292 297.954C186.641 297.894 184.402 297.349 182.634 296.321ZM322.379 250.24C325.148 273.341 321.731 291.302 313.778 296.079C312.01 297.168 309.713 297.652 307.003 297.652C294.807 297.652 276.721 287.673 257.515 269.471C265.763 260.581 274.011 250.482 281.846 239.294C295.161 237.843 307.769 235.606 319.316 232.642C320.671 238.75 321.731 244.616 322.379 250.24ZM345.061 209.904C339.995 212.142 334.457 214.137 328.742 216.012C325.384 204.159 320.965 191.823 315.486 179.184C320.906 166.605 325.266 154.329 328.565 142.537C334.398 144.411 339.936 146.467 345.12 148.705C365.976 157.836 379.467 169.81 379.467 179.305C379.408 188.799 365.917 200.833 345.061 209.904Z" fill="url(#paint0_linear_602_2)"/>
<path d="M215 162.886C231.887 174.392 247.5 162.886 247.5 162.886C259.664 154.422 266.692 153.014 280 162.886" stroke="#60C7D5" stroke-width="6" stroke-linecap="round"/>
<path d="M215 180.886C231.887 192.392 247.5 180.886 247.5 180.886C259.664 172.422 266.692 171.014 280 180.886" stroke="#58BBDA" stroke-width="6" stroke-linecap="round"/>
<path d="M215 198.886C231.887 210.392 247.5 198.886 247.5 198.886C259.664 190.422 266.692 189.014 280 198.886" stroke="#58B3DA" stroke-width="6" stroke-linecap="round"/>
<defs>
<linearGradient id="paint0_linear_602_2" x1="248.029" y1="47.1695" x2="248.029" y2="311.379" gradientUnits="userSpaceOnUse">
<stop stop-color="#60D5CE"/>
<stop offset="1" stop-color="#60A4D5"/>
</linearGradient>
</defs>
</svg>
